<?xml version="1.0" standalone="no"?>
<!DOCTYPE svg PUBLIC "-//W3C//DTD SVG 20010904//EN"
 "http://www.w3.org/TR/2001/REC-SVG-20010904/DTD/svg10.dtd">
<svg version="1.0" xmlns="http://www.w3.org/2000/svg"
 width="880.000000pt" height="880.000000pt" viewBox="0 0 880.000000 880.000000"
 preserveAspectRatio="xMidYMid meet">
<metadata>
Created by potrace 1.11, written by Peter Selinger 2001-2013
</metadata>
<g transform="translate(0.000000,880.000000) scale(0.100000,-0.100000)"
fill="#000000" stroke="none">
<path d="M7 8228 c-9 -742 -9 -6604 0 -7521 l6 -707 4394 0 4393 0 0 4400 0
4400 -4393 0 -4394 0 -6 -572z m3513 -3093 l0 -1365 585 0 585 0 0 -340 0
-340 -975 0 -975 0 0 1705 0 1705 390 0 390 0 0 -1365z m1140 1195 l0 -170
-285 0 -285 0 2 -342 3 -343 268 -3 267 -2 0 -170 0 -170 -267 -2 -268 -3 -3
-407 -2 -408 269 0 c148 0 276 -3 285 -6 24 -9 24 -329 0 -338 -20 -8 -898 -8
-918 0 -14 6 -16 127 -16 1270 l0 1264 475 0 475 0 0 -170z m1335 0 l0 -165
-192 -3 -193 -2 0 -1535 0 -1535 -189 0 -189 0 -6 143 c-4 78 -5 769 -4 1534
l3 1393 -195 2 -195 3 -3 155 c-1 85 0 160 2 167 4 11 116 13 583 11 l578 -3
0 -165z"/>
</g>
</svg>
